<svg width="186" height="39" viewBox="0 0 186 39" fill="none" xmlns="http://www.w3.org/2000/svg">
<path opacity="0.9" d="M13.9673 13.9673C17.8242 13.9673 20.9509 10.8406 20.9509 6.9836C20.9509 3.1267 17.8242 0 13.9673 0C10.1103 0 6.98364 3.1267 6.98364 6.9836C6.98364 10.8406 10.1103 13.9673 13.9673 13.9673Z" fill="#4F39F6"/>
<path opacity="0.9" d="M38.4099 13.9673C42.2669 13.9673 45.3935 10.8406 45.3935 6.9836C45.3935 3.1267 42.2669 0 38.4099 0C34.553 0 31.4263 3.1267 31.4263 6.9836C31.4263 10.8406 34.553 13.9673 38.4099 13.9673Z" fill="#4F39F6"/>
<path opacity="0.9" d="M26.1887 38.41C30.0457 38.41 33.1724 35.2833 33.1724 31.4264C33.1724 27.5694 30.0457 24.4427 26.1887 24.4427C22.3318 24.4427 19.2051 27.5694 19.2051 31.4264C19.2051 35.2833 22.3318 38.41 26.1887 38.41Z" fill="#4F39F6"/>
<path opacity="0.7" d="M13.9673 6.9836H38.41" stroke="#4F39F6" stroke-width="2"/>
<path opacity="0.7" d="M20.9509 13.9673L33.1723 24.4427" stroke="#4F39F6" stroke-width="2"/>
<path opacity="0.7" d="M31.4264 13.9673L19.2051 24.4427" stroke="#4F39F6" stroke-width="2"/>
<path opacity="0.6" d="M3.49182 22.6968C5.4203 22.6968 6.98364 21.1335 6.98364 19.205C6.98364 17.2765 5.4203 15.7132 3.49182 15.7132C1.56334 15.7132 0 17.2765 0 19.205C0 21.1335 1.56334 22.6968 3.49182 22.6968Z" fill="#4F39F6"/>
<path opacity="0.6" d="M48.8854 22.6968C50.8139 22.6968 52.3772 21.1335 52.3772 19.205C52.3772 17.2765 50.8139 15.7132 48.8854 15.7132C46.9569 15.7132 45.3936 17.2765 45.3936 19.205C45.3936 21.1335 46.9569 22.6968 48.8854 22.6968Z" fill="#4F39F6"/>
<path opacity="0.5" d="M6.98364 15.7132L10.4755 10.4755" stroke="#4F39F6" stroke-width="1.5"/>
<path opacity="0.5" d="M45.3937 15.7132L41.9019 10.4755" stroke="#4F39F6" stroke-width="1.5"/>
<path d="M70.9782 27.305C69.5345 27.305 68.223 26.9695 67.0437 26.2985C65.8847 25.6275 64.9697 24.7125 64.2987 23.5535C63.6277 22.3945 63.2922 21.1033 63.2922 19.68C63.2922 18.2363 63.6277 16.9452 64.2987 15.8065C64.9697 14.6475 65.8847 13.7325 67.0437 13.0615C68.223 12.3905 69.5345 12.055 70.9782 12.055C72.1169 12.055 73.1742 12.2787 74.1502 12.726C75.1465 13.153 75.9904 13.7732 76.6817 14.5865L74.4857 16.813C74.0587 16.3047 73.5402 15.9285 72.9302 15.6845C72.3405 15.4202 71.6899 15.288 70.9782 15.288C70.1445 15.288 69.4024 15.4812 68.7517 15.8675C68.1214 16.2335 67.6232 16.7418 67.2572 17.3925C66.9115 18.0432 66.7387 18.8057 66.7387 19.68C66.7387 20.534 66.9115 21.2965 67.2572 21.9675C67.6232 22.6182 68.1214 23.1367 68.7517 23.523C69.4024 23.889 70.1445 24.072 70.9782 24.072C71.6899 24.072 72.3405 23.95 72.9302 23.706C73.5402 23.4417 74.0587 23.0553 74.4857 22.547L76.6817 24.7735C75.9904 25.5868 75.1465 26.2172 74.1502 26.6645C73.1742 27.0915 72.1169 27.305 70.9782 27.305ZM85.5126 27.305C84.0893 27.305 82.7981 26.9695 81.6391 26.2985C80.4801 25.6072 79.555 24.682 78.8636 23.523C78.1926 22.364 77.8571 21.0728 77.8571 19.6495C77.8571 18.2262 78.1926 16.9452 78.8636 15.8065C79.555 14.6678 80.4801 13.763 81.6391 13.092C82.7981 12.4007 84.0893 12.055 85.5126 12.055C86.9563 12.055 88.2576 12.3905 89.4166 13.0615C90.5756 13.7325 91.4906 14.6475 92.1616 15.8065C92.853 16.9452 93.1986 18.2262 93.1986 19.6495C93.1986 21.0728 92.853 22.364 92.1616 23.523C91.4906 24.682 90.5756 25.6072 89.4166 26.2985C88.2576 26.9695 86.9563 27.305 85.5126 27.305ZM85.5126 24.072C86.3463 24.072 87.0783 23.889 87.7086 23.523C88.3593 23.1367 88.8575 22.608 89.2031 21.937C89.5691 21.266 89.7521 20.5035 89.7521 19.6495C89.7521 18.7955 89.5691 18.0432 89.2031 17.3925C88.8371 16.7418 88.339 16.2335 87.7086 15.8675C87.0783 15.4812 86.3463 15.288 85.5126 15.288C84.6993 15.288 83.9673 15.4812 83.3166 15.8675C82.6863 16.2335 82.1881 16.7418 81.8221 17.3925C81.4765 18.0432 81.3036 18.7955 81.3036 19.6495C81.3036 20.5035 81.4765 21.266 81.8221 21.937C82.1881 22.608 82.6863 23.1367 83.3166 23.523C83.9673 23.889 84.6993 24.072 85.5126 24.072ZM106.023 27V18.5515C106.023 17.5755 105.708 16.7723 105.078 16.142C104.468 15.5117 103.675 15.1965 102.699 15.1965C102.048 15.1965 101.469 15.3388 100.96 15.6235C100.452 15.9082 100.055 16.3047 99.771 16.813C99.486 17.3213 99.344 17.9008 99.344 18.5515L98.032 17.8195C98.032 16.7012 98.276 15.715 98.764 14.861C99.252 13.9867 99.923 13.3055 100.777 12.8175C101.652 12.3092 102.628 12.055 103.705 12.055C104.803 12.055 105.779 12.3397 106.633 12.909C107.487 13.458 108.158 14.1798 108.646 15.0745C109.134 15.9488 109.378 16.8638 109.378 17.8195V27H106.023ZM95.9887 27V12.36H99.344V27H95.9887ZM122.822 27V18.5515C122.822 17.5755 122.507 16.7723 121.877 16.142C121.267 15.5117 120.474 15.1965 119.498 15.1965C118.847 15.1965 118.267 15.3388 117.759 15.6235C117.251 15.9082 116.854 16.3047 116.57 16.813C116.285 17.3213 116.143 17.9008 116.143 18.5515L114.831 17.8195C114.831 16.7012 115.075 15.715 115.563 14.861C116.051 13.9867 116.722 13.3055 117.576 12.8175C118.45 12.3092 119.426 12.055 120.504 12.055C121.602 12.055 122.578 12.3397 123.432 12.909C124.286 13.458 124.957 14.1798 125.445 15.0745C125.933 15.9488 126.177 16.8638 126.177 17.8195V27H122.822ZM112.788 27V12.36H116.143V27H112.788ZM136.388 27.305C134.924 27.305 133.602 26.9797 132.423 26.329C131.264 25.658 130.339 24.743 129.647 23.584C128.976 22.425 128.641 21.1237 128.641 19.68C128.641 18.2363 128.976 16.9452 129.647 15.8065C130.318 14.6475 131.223 13.7325 132.362 13.0615C133.521 12.3905 134.802 12.055 136.205 12.055C137.567 12.055 138.767 12.3702 139.804 13.0005C140.861 13.6308 141.685 14.495 142.274 15.593C142.884 16.691 143.189 17.9415 143.189 19.3445C143.189 19.5885 143.169 19.8427 143.128 20.107C143.108 20.351 143.067 20.6255 143.006 20.9305H130.989V18.1855H141.268L140.017 19.2835C139.977 18.3888 139.804 17.6365 139.499 17.0265C139.194 16.4165 138.757 15.9488 138.187 15.6235C137.638 15.2982 136.957 15.1355 136.144 15.1355C135.29 15.1355 134.548 15.3185 133.917 15.6845C133.287 16.0505 132.799 16.569 132.453 17.24C132.108 17.8907 131.935 18.6735 131.935 19.5885C131.935 20.5035 132.118 21.3067 132.484 21.998C132.85 22.6893 133.368 23.2282 134.039 23.6145C134.71 23.9805 135.483 24.1635 136.357 24.1635C137.11 24.1635 137.801 24.0313 138.431 23.767C139.082 23.5027 139.631 23.1163 140.078 22.608L142.213 24.7735C141.502 25.6072 140.637 26.2375 139.621 26.6645C138.604 27.0915 137.526 27.305 136.388 27.305ZM154.734 27L150.525 20.8085L149.915 20.2595L144.242 12.36H148.298L152.05 17.789L152.629 18.3075L158.76 27H154.734ZM143.967 27L149.884 18.7955L151.836 21.205L147.871 27H143.967ZM152.934 20.1985L150.952 17.8195L154.612 12.36H158.485L152.934 20.1985ZM162.64 27V6.25999H165.995V27H162.64ZM159.133 15.41V12.36H169.503V15.41H159.133ZM177.654 27.305C176.333 27.305 175.133 26.9695 174.055 26.2985C172.998 25.6275 172.154 24.7227 171.524 23.584C170.914 22.425 170.609 21.1338 170.609 19.7105C170.609 18.2668 170.914 16.9757 171.524 15.837C172.154 14.678 172.998 13.763 174.055 13.092C175.133 12.4007 176.333 12.055 177.654 12.055C178.773 12.055 179.759 12.299 180.613 12.787C181.487 13.2547 182.178 13.9053 182.687 14.739C183.195 15.5727 183.449 16.5182 183.449 17.5755V21.7845C183.449 22.8418 183.195 23.7873 182.687 24.621C182.199 25.4547 181.518 26.1155 180.643 26.6035C179.769 27.0712 178.773 27.305 177.654 27.305ZM178.203 24.133C179.444 24.133 180.44 23.7162 181.192 22.8825C181.965 22.0488 182.351 20.9813 182.351 19.68C182.351 18.8057 182.178 18.033 181.833 17.362C181.487 16.691 180.999 16.1725 180.369 15.8065C179.759 15.4202 179.037 15.227 178.203 15.227C177.39 15.227 176.668 15.4202 176.038 15.8065C175.428 16.1725 174.94 16.691 174.574 17.362C174.228 18.033 174.055 18.8057 174.055 19.68C174.055 20.5543 174.228 21.327 174.574 21.998C174.94 22.669 175.428 23.1977 176.038 23.584C176.668 23.95 177.39 24.133 178.203 24.133ZM182.138 27V23.0655L182.717 19.497L182.138 15.959V12.36H185.493V27H182.138Z" fill="#4F39F6"/>
</svg>
