<svg width="53" height="39" viewBox="0 0 53 39" fill="none" xmlns="http://www.w3.org/2000/svg">
<path opacity="0.9" d="M13.9673 13.9673C17.8242 13.9673 20.9509 10.8406 20.9509 6.98364C20.9509 3.12668 17.8242 0 13.9673 0C10.1103 0 6.98364 3.12668 6.98364 6.98364C6.98364 10.8406 10.1103 13.9673 13.9673 13.9673Z" fill="#4F39F6"/>
<path opacity="0.9" d="M38.4099 13.9673C42.2669 13.9673 45.3935 10.8406 45.3935 6.98364C45.3935 3.12668 42.2669 0 38.4099 0C34.553 0 31.4263 3.12668 31.4263 6.98364C31.4263 10.8406 34.553 13.9673 38.4099 13.9673Z" fill="#4F39F6"/>
<path opacity="0.9" d="M26.1887 38.41C30.0457 38.41 33.1724 35.2833 33.1724 31.4264C33.1724 27.5694 30.0457 24.4427 26.1887 24.4427C22.3318 24.4427 19.2051 27.5694 19.2051 31.4264C19.2051 35.2833 22.3318 38.41 26.1887 38.41Z" fill="#4F39F6"/>
<path opacity="0.7" d="M13.9673 6.98364H38.41" stroke="#4F39F6" stroke-width="2"/>
<path opacity="0.7" d="M20.9509 13.9673L33.1723 24.4427" stroke="#4F39F6" stroke-width="2"/>
<path opacity="0.7" d="M31.4264 13.9673L19.2051 24.4427" stroke="#4F39F6" stroke-width="2"/>
<path opacity="0.6" d="M3.49182 22.6968C5.4203 22.6968 6.98364 21.1335 6.98364 19.205C6.98364 17.2765 5.4203 15.7132 3.49182 15.7132C1.56334 15.7132 0 17.2765 0 19.205C0 21.1335 1.56334 22.6968 3.49182 22.6968Z" fill="#4F39F6"/>
<path opacity="0.6" d="M48.8854 22.6968C50.8139 22.6968 52.3772 21.1335 52.3772 19.205C52.3772 17.2765 50.8139 15.7132 48.8854 15.7132C46.9569 15.7132 45.3936 17.2765 45.3936 19.205C45.3936 21.1335 46.9569 22.6968 48.8854 22.6968Z" fill="#4F39F6"/>
<path opacity="0.5" d="M6.98364 15.7132L10.4755 10.4755" stroke="#4F39F6" stroke-width="1.5"/>
<path opacity="0.5" d="M45.3937 15.7132L41.9019 10.4755" stroke="#4F39F6" stroke-width="1.5"/>
</svg>
